{"accessors":{"Cube.001_2034_Normals":{"bufferView":"Cube.001_2034_Normals_Buffer","byteOffset":0,"byteStride":12,"componentType":5126,"count":24,"max":[1,1,1],"min":[-1,-1,-1],"name":"Cube.001_2034_Normals","type":"VEC3"},"Cube.001_2034_Polygons":{"bufferView":"Cube.001_2034_Polygons_Buffer","byteOffset":0,"byteStride":2,"componentType":5123,"count":36,"name":"Cube.001_2034_Polygons","type":"SCALAR"},"Cube.001_2034_Positions":{"bufferView":"Cube.001_2034_Positions_Buffer","byteOffset":0,"byteStride":12,"componentType":5126,"count":24,"max":[1,1,1],"min":[-1,-1,-1],"name":"Cube.001_2034_Positions","type":"VEC3"},"Cube.002_70_Normals":{"bufferView":"Cube.002_70_Normals_Buffer","byteOffset":0,"byteStride":12,"componentType":5126,"count":24,"max":[1,1,1],"min":[-1,-1,-1],"name":"Cube.002_70_Normals","type":"VEC3"},"Cube.002_70_Polygons":{"bufferView":"Cube.002_70_Polygons_Buffer","byteOffset":0,"byteStride":2,"componentType":5123,"count":36,"name":"Cube.002_70_Polygons","type":"SCALAR"},"Cube.002_70_Positions":{"bufferView":"Cube.002_70_Positions_Buffer","byteOffset":0,"byteStride":12,"componentType":5126,"count":24,"max":[1,1,1],"min":[-1,-1,-1],"name":"Cube.002_70_Positions","type":"VEC3"},"Cylinder.001_68_Normals":{"bufferView":"Cylinder.001_68_Normals_Buffer","byteOffset":0,"byteStride":12,"componentType":5126,"count":293,"max":[0.99518477916717529,0.99518489837646484,1],"min":[-0.99518477916717529,-0.99518471956253052,-1],"name":"Cylinder.001_68_Normals","type":"VEC3"},"Cylinder.001_68_Polygons":{"bufferView":"Cylinder.001_68_Polygons_Buffer","byteOffset":0,"byteStride":2,"componentType":5123,"count":372,"name":"Cylinder.001_68_Polygons","type":"SCALAR"},"Cylinder.001_68_Positions":{"bufferView":"Cylinder.001_68_Positions_Buffer","byteOffset":0,"byteStride":12,"componentType":5126,"count":293,"max":[1,1,1],"min":[-1,-1,-1],"name":"Cylinder.001_68_Positions","type":"VEC3"},"Cylinder.002_66_Normals":{"bufferView":"Cylinder.002_66_Normals_Buffer","byteOffset":0,"byteStride":12,"componentType":5126,"count":293,"max":[0.99518477916717529,0.99518489837646484,1],"min":[-0.99518477916717529,-0.99518471956253052,-1],"name":"Cylinder.002_66_Normals","type":"VEC3"},"Cylinder.002_66_Polygons":{"bufferView":"Cylinder.002_66_Polygons_Buffer","byteOffset":0,"byteStride":2,"componentType":5123,"count":372,"name":"Cylinder.002_66_Polygons","type":"SCALAR"},"Cylinder.002_66_Positions":{"bufferView":"Cylinder.002_66_Positions_Buffer","byteOffset":0,"byteStride":12,"componentType":5126,"count":293,"max":[1,1,1],"min":[-1,-1,-1],"name":"Cylinder.002_66_Positions","type":"VEC3"},"Cylinder.003_64_Normals":{"bufferView":"Cylinder.003_64_Normals_Buffer","byteOffset":0,"byteStride":12,"componentType":5126,"count":293,"max":[0.99518477916717529,0.99518489837646484,1],"min":[-0.99518477916717529,-0.99518471956253052,-1],"name":"Cylinder.003_64_Normals","type":"VEC3"},"Cylinder.003_64_Polygons":{"bufferView":"Cylinder.003_64_Polygons_Buffer","byteOffset":0,"byteStride":2,"componentType":5123,"count":372,"name":"Cylinder.003_64_Polygons","type":"SCALAR"},"Cylinder.003_64_Positions":{"bufferView":"Cylinder.003_64_Positions_Buffer","byteOffset":0,"byteStride":12,"componentType":5126,"count":293,"max":[1,1,1],"min":[-1,-1,-1],"name":"Cylinder.003_64_Positions","type":"VEC3"},"Cylinder.004_62_Normals":{"bufferView":"Cylinder.004_62_Normals_Buffer","byteOffset":0,"byteStride":12,"componentType":5126,"count":293,"max":[0.99518477916717529,0.99518489837646484,1],"min":[-0.99518477916717529,-0.99518471956253052,-1],"name":"Cylinder.004_62_Normals","type":"VEC3"},"Cylinder.004_62_Polygons":{"bufferView":"Cylinder.004_62_Polygons_Buffer","byteOffset":0,"byteStride":2,"componentType":5123,"count":372,"name":"Cylinder.004_62_Polygons","type":"SCALAR"},"Cylinder.004_62_Positions":{"bufferView":"Cylinder.004_62_Positions_Buffer","byteOffset":0,"byteStride":12,"componentType":5126,"count":293,"max":[1,1,1],"min":[-1,-1,-1],"name":"Cylinder.004_62_Positions","type":"VEC3"},"Cylinder.005_60_Normals":{"bufferView":"Cylinder.005_60_Normals_Buffer","byteOffset":0,"byteStride":12,"componentType":5126,"count":293,"max":[0.99518477916717529,0.99518489837646484,1],"min":[-0.99518477916717529,-0.99518471956253052,-1],"name":"Cylinder.005_60_Normals","type":"VEC3"},"Cylinder.005_60_Polygons":{"bufferView":"Cylinder.005_60_Polygons_Buffer","byteOffset":0,"byteStride":2,"componentType":5123,"count":372,"name":"Cylinder.005_60_Polygons","type":"SCALAR"},"Cylinder.005_60_Positions":{"bufferView":"Cylinder.005_60_Positions_Buffer","byteOffset":0,"byteStride":12,"componentType":5126,"count":293,"max":[1,1,1],"min":[-1,-1,-1],"name":"Cylinder.005_60_Positions","type":"VEC3"},"Cylinder.006_58_Normals":{"bufferView":"Cylinder.006_58_Normals_Buffer","byteOffset":0,"byteStride":12,"componentType":5126,"count":293,"max":[0.99518477916717529,0.99518489837646484,1],"min":[-0.99518477916717529,-0.99518471956253052,-1],"name":"Cylinder.006_58_Normals","type":"VEC3"},"Cylinder.006_58_Polygons":{"bufferView":"Cylinder.006_58_Polygons_Buffer","byteOffset":0,"byteStride":2,"componentType":5123,"count":372,"name":"Cylinder.006_58_Polygons","type":"SCALAR"},"Cylinder.006_58_Positions":{"bufferView":"Cylinder.006_58_Positions_Buffer","byteOffset":0,"byteStride":12,"componentType":5126,"count":293,"max":[1,1,1],"min":[-1,-1,-1],"name":"Cylinder.006_58_Positions","type":"VEC3"},"Cylinder.007_56_Normals":{"bufferView":"Cylinder.007_56_Normals_Buffer","byteOffset":0,"byteStride":12,"componentType":5126,"count":293,"max":[0.99518477916717529,0.99518489837646484,1],"min":[-0.99518477916717529,-0.99518471956253052,-1],"name":"Cylinder.007_56_Normals","type":"VEC3"},"Cylinder.007_56_Polygons":{"bufferView":"Cylinder.007_56_Polygons_Buffer","byteOffset":0,"byteStride":2,"componentType":5123,"count":372,"name":"Cylinder.007_56_Polygons","type":"SCALAR"},"Cylinder.007_56_Positions":{"bufferView":"Cylinder.007_56_Positions_Buffer","byteOffset":0,"byteStride":12,"componentType":5126,"count":293,"max":[1,1,1],"min":[-1,-1,-1],"name":"Cylinder.007_56_Positions","type":"VEC3"},"Cylinder.008_54_Normals":{"bufferView":"Cylinder.008_54_Normals_Buffer","byteOffset":0,"byteStride":12,"componentType":5126,"count":293,"max":[0.99518477916717529,0.99518489837646484,1],"min":[-0.99518477916717529,-0.99518471956253052,-1],"name":"Cylinder.008_54_Normals","type":"VEC3"},"Cylinder.008_54_Polygons":{"bufferView":"Cylinder.008_54_Polygons_Buffer","byteOffset":0,"byteStride":2,"componentType":5123,"count":372,"name":"Cylinder.008_54_Polygons","type":"SCALAR"},"Cylinder.008_54_Positions":{"bufferView":"Cylinder.008_54_Positions_Buffer","byteOffset":0,"byteStride":12,"componentType":5126,"count":293,"max":[1,1,1],"min":[-1,-1,-1],"name":"Cylinder.008_54_Positions","type":"VEC3"},"Cylinder.009_52_Normals":{"bufferView":"Cylinder.009_52_Normals_Buffer","byteOffset":0,"byteStride":12,"componentType":5126,"count":293,"max":[0.99518477916717529,0.99518489837646484,1],"min":[-0.99518477916717529,-0.99518471956253052,-1],"name":"Cylinder.009_52_Normals","type":"VEC3"},"Cylinder.009_52_Polygons":{"bufferView":"Cylinder.009_52_Polygons_Buffer","byteOffset":0,"byteStride":2,"componentType":5123,"count":372,"name":"Cylinder.009_52_Polygons","type":"SCALAR"},"Cylinder.009_52_Positions":{"bufferView":"Cylinder.009_52_Positions_Buffer","byteOffset":0,"byteStride":12,"componentType":5126,"count":293,"max":[1,1,1],"min":[-1,-1,-1],"name":"Cylinder.009_52_Positions","type":"VEC3"},"Cylinder_72_Normals":{"bufferView":"Cylinder_72_Normals_Buffer","byteOffset":0,"byteStride":12,"componentType":5126,"count":293,"max":[0.99518477916717529,0.99518489837646484,1],"min":[-0.99518477916717529,-0.99518471956253052,-1],"name":"Cylinder_72_Normals","type":"VEC3"},"Cylinder_72_Polygons":{"bufferView":"Cylinder_72_Polygons_Buffer","byteOffset":0,"byteStride":2,"componentType":5123,"count":372,"name":"Cylinder_72_Polygons","type":"SCALAR"},"Cylinder_72_Positions":{"bufferView":"Cylinder_72_Positions_Buffer","byteOffset":0,"byteStride":12,"componentType":5126,"count":293,"max":[1,1,1],"min":[-1,-1,-1],"name":"Cylinder_72_Positions","type":"VEC3"}},"animations":{},"asset":{"copyright":"","generator":"FBX GLTF Exporter v1.0","premultipliedAlpha":false,"profile":{"api":"WebGL","version":"1.0.3"},"version":"1.0"},"bufferViews":{"Cube.001_2034_Normals_Buffer":{"buffer":"BlenderTest","byteLength":288,"byteOffset":78696,"name":"Cube.001_2034_Normals_Buffer","target":34962},"Cube.001_2034_Polygons_Buffer":{"buffer":"BlenderTest","byteLength":72,"byteOffset":78984,"name":"Cube.001_2034_Polygons_Buffer","target":34963},"Cube.001_2034_Positions_Buffer":{"buffer":"BlenderTest","byteLength":288,"byteOffset":78408,"name":"Cube.001_2034_Positions_Buffer","target":34962},"Cube.002_70_Normals_Buffer":{"buffer":"BlenderTest","byteLength":288,"byteOffset":70272,"name":"Cube.002_70_Normals_Buffer","target":34962},"Cube.002_70_Polygons_Buffer":{"buffer":"BlenderTest","byteLength":72,"byteOffset":70560,"name":"Cube.002_70_Polygons_Buffer","target":34963},"Cube.002_70_Positions_Buffer":{"buffer":"BlenderTest","byteLength":288,"byteOffset":69984,"name":"Cube.002_70_Positions_Buffer","target":34962},"Cylinder.001_68_Normals_Buffer":{"buffer":"BlenderTest","byteLength":3516,"byteOffset":65724,"name":"Cylinder.001_68_Normals_Buffer","target":34962},"Cylinder.001_68_Polygons_Buffer":{"buffer":"BlenderTest","byteLength":744,"byteOffset":69240,"name":"Cylinder.001_68_Polygons_Buffer","target":34963},"Cylinder.001_68_Positions_Buffer":{"buffer":"BlenderTest","byteLength":3516,"byteOffset":62208,"name":"Cylinder.001_68_Positions_Buffer","target":34962},"Cylinder.002_66_Normals_Buffer":{"buffer":"BlenderTest","byteLength":3516,"byteOffset":57948,"name":"Cylinder.002_66_Normals_Buffer","target":34962},"Cylinder.002_66_Polygons_Buffer":{"buffer":"BlenderTest","byteLength":744,"byteOffset":61464,"name":"Cylinder.002_66_Polygons_Buffer","target":34963},"Cylinder.002_66_Positions_Buffer":{"buffer":"BlenderTest","byteLength":3516,"byteOffset":54432,"name":"Cylinder.002_66_Positions_Buffer","target":34962},"Cylinder.003_64_Normals_Buffer":{"buffer":"BlenderTest","byteLength":3516,"byteOffset":50172,"name":"Cylinder.003_64_Normals_Buffer","target":34962},"Cylinder.003_64_Polygons_Buffer":{"buffer":"BlenderTest","byteLength":744,"byteOffset":53688,"name":"Cylinder.003_64_Polygons_Buffer","target":34963},"Cylinder.003_64_Positions_Buffer":{"buffer":"BlenderTest","byteLength":3516,"byteOffset":46656,"name":"Cylinder.003_64_Positions_Buffer","target":34962},"Cylinder.004_62_Normals_Buffer":{"buffer":"BlenderTest","byteLength":3516,"byteOffset":42396,"name":"Cylinder.004_62_Normals_Buffer","target":34962},"Cylinder.004_62_Polygons_Buffer":{"buffer":"BlenderTest","byteLength":744,"byteOffset":45912,"name":"Cylinder.004_62_Polygons_Buffer","target":34963},"Cylinder.004_62_Positions_Buffer":{"buffer":"BlenderTest","byteLength":3516,"byteOffset":38880,"name":"Cylinder.004_62_Positions_Buffer","target":34962},"Cylinder.005_60_Normals_Buffer":{"buffer":"BlenderTest","byteLength":3516,"byteOffset":34620,"name":"Cylinder.005_60_Normals_Buffer","target":34962},"Cylinder.005_60_Polygons_Buffer":{"buffer":"BlenderTest","byteLength":744,"byteOffset":38136,"name":"Cylinder.005_60_Polygons_Buffer","target":34963},"Cylinder.005_60_Positions_Buffer":{"buffer":"BlenderTest","byteLength":3516,"byteOffset":31104,"name":"Cylinder.005_60_Positions_Buffer","target":34962},"Cylinder.006_58_Normals_Buffer":{"buffer":"BlenderTest","byteLength":3516,"byteOffset":26844,"name":"Cylinder.006_58_Normals_Buffer","target":34962},"Cylinder.006_58_Polygons_Buffer":{"buffer":"BlenderTest","byteLength":744,"byteOffset":30360,"name":"Cylinder.006_58_Polygons_Buffer","target":34963},"Cylinder.006_58_Positions_Buffer":{"buffer":"BlenderTest","byteLength":3516,"byteOffset":23328,"name":"Cylinder.006_58_Positions_Buffer","target":34962},"Cylinder.007_56_Normals_Buffer":{"buffer":"BlenderTest","byteLength":3516,"byteOffset":19068,"name":"Cylinder.007_56_Normals_Buffer","target":34962},"Cylinder.007_56_Polygons_Buffer":{"buffer":"BlenderTest","byteLength":744,"byteOffset":22584,"name":"Cylinder.007_56_Polygons_Buffer","target":34963},"Cylinder.007_56_Positions_Buffer":{"buffer":"BlenderTest","byteLength":3516,"byteOffset":15552,"name":"Cylinder.007_56_Positions_Buffer","target":34962},"Cylinder.008_54_Normals_Buffer":{"buffer":"BlenderTest","byteLength":3516,"byteOffset":11292,"name":"Cylinder.008_54_Normals_Buffer","target":34962},"Cylinder.008_54_Polygons_Buffer":{"buffer":"BlenderTest","byteLength":744,"byteOffset":14808,"name":"Cylinder.008_54_Polygons_Buffer","target":34963},"Cylinder.008_54_Positions_Buffer":{"buffer":"BlenderTest","byteLength":3516,"byteOffset":7776,"name":"Cylinder.008_54_Positions_Buffer","target":34962},"Cylinder.009_52_Normals_Buffer":{"buffer":"BlenderTest","byteLength":3516,"byteOffset":3516,"name":"Cylinder.009_52_Normals_Buffer","target":34962},"Cylinder.009_52_Polygons_Buffer":{"buffer":"BlenderTest","byteLength":744,"byteOffset":7032,"name":"Cylinder.009_52_Polygons_Buffer","target":34963},"Cylinder.009_52_Positions_Buffer":{"buffer":"BlenderTest","byteLength":3516,"byteOffset":0,"name":"Cylinder.009_52_Positions_Buffer","target":34962},"Cylinder_72_Normals_Buffer":{"buffer":"BlenderTest","byteLength":3516,"byteOffset":74148,"name":"Cylinder_72_Normals_Buffer","target":34962},"Cylinder_72_Polygons_Buffer":{"buffer":"BlenderTest","byteLength":744,"byteOffset":77664,"name":"Cylinder_72_Polygons_Buffer","target":34963},"Cylinder_72_Positions_Buffer":{"buffer":"BlenderTest","byteLength":3516,"byteOffset":70632,"name":"Cylinder_72_Positions_Buffer","target":34962}},"buffers":{"BlenderTest":{"byteLength":79056,"name":"BlenderTest","type":"arraybuffer","uri":"BlenderTest.bin"}},"cameras":{},"images":{},"lights":{},"materials":{"defaultMaterial":{"name":"defaultMaterial","technique":"defaultMaterial_technique_0","values":{"diffuse":[0.80000000000000004,0.80000000000000004,0.80000000000000004,1]}}},"meshes":{"Cube.001_2034":{"name":"Cube.001_2034","primitives":[{"attributes":{"NORMAL":"Cube.001_2034_Normals","POSITION":"Cube.001_2034_Positions"},"indices":"Cube.001_2034_Polygons","material":"defaultMaterial","mode":4}]},"Cube.002_70":{"name":"Cube.002_70","primitives":[{"attributes":{"NORMAL":"Cube.002_70_Normals","POSITION":"Cube.002_70_Positions"},"indices":"Cube.002_70_Polygons","material":"defaultMaterial","mode":4}]},"Cylinder.001_68":{"name":"Cylinder.001_68","primitives":[{"attributes":{"NORMAL":"Cylinder.001_68_Normals","POSITION":"Cylinder.001_68_Positions"},"indices":"Cylinder.001_68_Polygons","material":"defaultMaterial","mode":4}]},"Cylinder.002_66":{"name":"Cylinder.002_66","primitives":[{"attributes":{"NORMAL":"Cylinder.002_66_Normals","POSITION":"Cylinder.002_66_Positions"},"indices":"Cylinder.002_66_Polygons","material":"defaultMaterial","mode":4}]},"Cylinder.003_64":{"name":"Cylinder.003_64","primitives":[{"attributes":{"NORMAL":"Cylinder.003_64_Normals","POSITION":"Cylinder.003_64_Positions"},"indices":"Cylinder.003_64_Polygons","material":"defaultMaterial","mode":4}]},"Cylinder.004_62":{"name":"Cylinder.004_62","primitives":[{"attributes":{"NORMAL":"Cylinder.004_62_Normals","POSITION":"Cylinder.004_62_Positions"},"indices":"Cylinder.004_62_Polygons","material":"defaultMaterial","mode":4}]},"Cylinder.005_60":{"name":"Cylinder.005_60","primitives":[{"attributes":{"NORMAL":"Cylinder.005_60_Normals","POSITION":"Cylinder.005_60_Positions"},"indices":"Cylinder.005_60_Polygons","material":"defaultMaterial","mode":4}]},"Cylinder.006_58":{"name":"Cylinder.006_58","primitives":[{"attributes":{"NORMAL":"Cylinder.006_58_Normals","POSITION":"Cylinder.006_58_Positions"},"indices":"Cylinder.006_58_Polygons","material":"defaultMaterial","mode":4}]},"Cylinder.007_56":{"name":"Cylinder.007_56","primitives":[{"attributes":{"NORMAL":"Cylinder.007_56_Normals","POSITION":"Cylinder.007_56_Positions"},"indices":"Cylinder.007_56_Polygons","material":"defaultMaterial","mode":4}]},"Cylinder.008_54":{"name":"Cylinder.008_54","primitives":[{"attributes":{"NORMAL":"Cylinder.008_54_Normals","POSITION":"Cylinder.008_54_Positions"},"indices":"Cylinder.008_54_Polygons","material":"defaultMaterial","mode":4}]},"Cylinder.009_52":{"name":"Cylinder.009_52","primitives":[{"attributes":{"NORMAL":"Cylinder.009_52_Normals","POSITION":"Cylinder.009_52_Positions"},"indices":"Cylinder.009_52_Polygons","material":"defaultMaterial","mode":4}]},"Cylinder_72":{"name":"Cylinder_72","primitives":[{"attributes":{"NORMAL":"Cylinder_72_Normals","POSITION":"Cylinder_72_Positions"},"indices":"Cylinder_72_Polygons","material":"defaultMaterial","mode":4}]}},"nodes":{"Cube.001_49":{"children":[],"matrix":[7.490565795898438,0,0,0,0,-1.3609223571832427e-06,-8.3532818603514531,0,0,0.24989339828490884,-4.0712802264297154e-08,0,0,0,0,1],"meshes":["Cube.002_70"],"name":"Cube.001_49"},"Cube_51":{"children":[],"matrix":[1,0,0,0,0,-1.62920679552643e-07,-0.9999999999999869,0,0,0.9999999999999869,-1.62920679552643e-07,0,-0.57724006652832027,-0.68142227172851566,-5.3437487792968748,1],"meshes":["Cube.001_2034"],"name":"Cube_51"},"Cylinder_001_48":{"children":[],"matrix":[0.87805196776630523,-0.37009822806103837,0.30340079678174697,0,-0.32419609457268322,-0.92635051876525176,-0.19175845084744306,0,0.070405007130680652,0.014002509811103099,-0.18667370548449952,0,0.17299360275268555,1.2586460113525391,1.325384979248047,1],"meshes":["Cylinder.001_68"],"name":"Cylinder_001_48"},"Cylinder_002_47":{"children":[],"matrix":[0.93978624942772704,0.00015991800716465962,0.34176297693093349,0,0.34176294698410387,5.1794026221077026e-05,-0.93978619131487551,0,-3.3598000529574884e-05,0.19999999717436134,-1.1957470606420953e-06,0,1.6381260681152343,0.84979835510253909,-1.104696044921875,1],"meshes":["Cylinder.002_66"],"name":"Cylinder_002_47"},"Cylinder_003_46":{"children":[],"matrix":[-0.30671986832981174,0.55822538565344415,-0.77091321729227169,0,-0.044803537386876799,-0.81752314865501297,-0.57415028037162574,0,-0.19014894699201901,-0.028312734008913733,0.055152217097473553,0,5.3467907714843754,1.2624200439453126,-3.7537310791015628,1],"meshes":["Cylinder.003_64"],"name":"Cylinder_003_46"},"Cylinder_004_45":{"children":[],"matrix":[-0.49747905927380948,-0.6578407148135299,-0.5654734118574184,0,-0.41139295321179892,0.75280575131840011,-0.5138471378396442,0,0.1527442468517759,-0.004599282950694855,-0.12902723120037721,0,-3.3684609985351561,1.2531449890136719,4.6125469970703126,1],"meshes":["Cylinder.004_62"],"name":"Cylinder_004_45"},"Cylinder_005_44":{"children":[],"matrix":[-0.40692255007096018,0.047193747053204241,0.91224255727688286,0,0.90233099805650274,0.17619925807184969,0.39338586504016787,0,-0.028434228261026442,0.19664450831661012,-0.022856771690650046,0,-5.8371508789062503,0.61687458038330079,-0.86876541137695318,1],"meshes":["Cylinder.005_60"],"name":"Cylinder_005_44"},"Cylinder_006_43":{"children":[],"matrix":[0.95007258215292756,-0.10448307572201485,0.2940159443447532,0,0.3117162461984645,0.27563635438084111,-0.90931709650681158,0,0.0027933528041231589,0.19111335767353441,0.058888723019432279,0,-1.7064739990234374,0.72556755065917966,0.015261759757995605,1],"meshes":["Cylinder.006_58"],"name":"Cylinder_006_43"},"Cylinder_007_42":{"children":[],"matrix":[0.86799874866058258,-2.9306060307182831e-07,-0.49656622895208324,0,-0.49656622891449242,1.180645271560401e-05,-0.86799874860184156,0,1.2234125744818195e-06,0.19999999998605225,2.0204927452534812e-06,0,-1.1216919708251953,0.44988868713378904,-1.4120889282226563,1],"meshes":["Cylinder.007_56"],"name":"Cylinder_007_42"},"Cylinder_008_41":{"children":[],"matrix":[0.9532057367557415,1.2314127052363665e-05,0.30232162592293482,0,-0.3023216952872938,1.548181598273889e-05,0.9532059548276699,0,1.4114826139979813e-06,-0.19999999996086756,3.6960375612752925e-06,0,-0.94378356933593754,0.44988597869873048,-3.9519158935546876,1],"meshes":["Cylinder.008_54"],"name":"Cylinder_008_41"},"Cylinder_009_40":{"children":[],"matrix":[0.68588053608845279,-0.010816764566225481,-0.72763375940052111,0,-0.31737016347851965,0.89534324431988099,-0.31246864512198275,0,0.1309723663108274,0.089049076092367369,0.12213310993201949,0,7.4811315536499023,5.3436651229858398,6.5076394081115723,1],"meshes":["Cylinder.009_52"],"name":"Cylinder_009_40"},"Cylinder_50":{"children":[],"matrix":[0.94612774751296014,0.23816645537784456,0.21936014298618789,0,0.11453243733835541,0.38750858520016351,-0.91472343330095351,0,-0.060572087992174679,0.17811385204526392,0.067870982286039647,0,0.30363500595092774,0.86903694152832034,0.067253351211547852,1],"meshes":["Cylinder_72"],"name":"Cylinder_50"},"RootNode_10":{"children":["Cylinder_009_40","Cylinder_008_41","Cylinder_007_42","Cylinder_006_43","Cylinder_005_44","Cylinder_004_45","Cylinder_003_46","Cylinder_002_47","Cylinder_001_48","Cube.001_49","Cylinder_50","Cube_51"],"matrix":[1,0,0,0,0,1,0,0,0,0,1,0,0,0,0,1],"name":"RootNode_10"}},"programs":{"program_0":{"attributes":["a_normal","a_position"],"fragmentShader":"program_0FS","name":"program_0","vertexShader":"program_0VS"}},"samplers":{},"scene":"BlenderTest","scenes":{"BlenderTest":{"nodes":["RootNode_10"]}},"shaders":{"program_0FS":{"type":35632,"uri":"program_0FS.glsl"},"program_0VS":{"type":35633,"uri":"program_0VS.glsl"}},"skins":{},"techniques":{"defaultMaterial_technique_0":{"attributes":{"a_normal":"normal","a_position":"position"},"extras":{"doubleSided":false,"lightingModel":"Unknown"},"parameters":{"diffuse":{"type":35666},"modelViewMatrix":{"semantic":"MODELVIEW","type":35676},"normal":{"semantic":"NORMAL","type":35665},"normalMatrix":{"semantic":"MODELVIEWINVERSETRANSPOSE","type":35675},"position":{"semantic":"POSITION","type":35665},"projectionMatrix":{"semantic":"PROJECTION","type":35676}},"program":"program_0","states":{"enable":[2884,2929]},"uniforms":{"u_diffuse":"diffuse","u_modelViewMatrix":"modelViewMatrix","u_normalMatrix":"normalMatrix","u_projectionMatrix":"projectionMatrix"}}},"textures":{}}
