{"accessors":{"LOD3spShape_53_Normals":{"bufferView":"LOD3spShape_53_Normals_Buffer","byteOffset":0,"byteStride":12,"componentType":5126,"count":2399,"max":[0.99959897994995117,0.999580979347229,0.99843597412109375],"min":[-0.9990839958190918,-1,-0.99983197450637817],"name":"LOD3spShape_53_Normals","type":"VEC3"},"LOD3spShape_53_Polygons":{"bufferView":"LOD3spShape_53_Polygons_Buffer","byteOffset":0,"byteStride":2,"componentType":5123,"count":12636,"name":"LOD3spShape_53_Polygons","type":"SCALAR"},"LOD3spShape_53_Positions":{"bufferView":"LOD3spShape_53_Positions_Buffer","byteOffset":0,"byteStride":12,"componentType":5126,"count":2399,"max":[96.179901123046875,163.97000122070312,53.925201416015625],"min":[-69.298500061035156,9.9293699264526367,-61.328201293945312],"name":"LOD3spShape_53_Positions","type":"VEC3"},"LOD3spShape_53_TEXCOORD_0":{"bufferView":"LOD3spShape_53_TEXCOORD_0_Buffer","byteOffset":0,"byteStride":8,"componentType":5126,"count":2399,"max":[0.98334598541259766,0.98003697395324707],"min":[0.026409000158309937,0.01996299996972084],"name":"LOD3spShape_53_TEXCOORD_0","type":"VEC2"}},"animations":{},"asset":{"copyright":"gcorson","generator":"FBX GLTF Exporter v1.0","premultipliedAlpha":false,"profile":{"api":"WebGL","version":"1.0.3"},"version":"1.0"},"bufferViews":{"LOD3spShape_53_Normals_Buffer":{"buffer":"untitled","byteLength":28788,"byteOffset":28788,"name":"LOD3spShape_53_Normals_Buffer","target":34962},"LOD3spShape_53_Polygons_Buffer":{"buffer":"untitled","byteLength":25272,"byteOffset":76768,"name":"LOD3spShape_53_Polygons_Buffer","target":34963},"LOD3spShape_53_Positions_Buffer":{"buffer":"untitled","byteLength":28788,"byteOffset":0,"name":"LOD3spShape_53_Positions_Buffer","target":34962},"LOD3spShape_53_TEXCOORD_0_Buffer":{"buffer":"untitled","byteLength":19192,"byteOffset":57576,"name":"LOD3spShape_53_TEXCOORD_0_Buffer","target":34962}},"buffers":{"untitled":{"byteLength":102040,"name":"untitled","type":"arraybuffer","uri":"untitled.bin"}},"cameras":{"cameraShape1_43":{"name":"cameraShape1_43","perspective":{"aspectRatio":1.5,"yfov":0.66059315924583784,"zfar":100,"znear":0.01},"type":"perspective"}},"images":{"file2":{"name":"file2","uri":"duckCM.png"}},"lights":{"directionalLightShape1_44":{"directional":{"color":[1,1,1]},"name":"directionalLightShape1_44","type":"directional"}},"materials":{"blinn3":{"name":"blinn3","technique":"blinn3_technique_0","values":{"ambient":[0,0,0,1],"diffuse":"texture_file2","emission":[0,0,0,1],"reflective":[0,0,0,1],"reflectivity":0.5,"shininess":0.29999999999999999,"specular":[0,0,0,1],"transparency":1,"transparent":[0,0,0,1]}}},"meshes":{"LOD3spShape_53":{"name":"LOD3spShape_53","primitives":[{"attributes":{"NORMAL":"LOD3spShape_53_Normals","POSITION":"LOD3spShape_53_Positions","TEXCOORD_0":"LOD3spShape_53_TEXCOORD_0"},"indices":"LOD3spShape_53_Polygons","material":"blinn3","mode":4}]}},"nodes":{"LOD3sp_45":{"children":[],"matrix":[0.01,0,0,0,0,0.01,0,0,0,0,0.01,0,0,0,0,1],"meshes":["LOD3spShape_53"],"name":"LOD3sp_45"},"RootNode_10":{"children":["LOD3sp_45","camera1_46","directionalLight1_47"],"matrix":[1,0,0,0,0,1,0,0,0,0,1,0,0,0,0,1],"name":"RootNode_10"},"camera1_46":{"camera":"cameraShape1_43","children":[],"matrix":[-0.0072896862742141185,-6.8961256735978782e-19,-0.0068454710592868832,0,-0.0042520491534354613,0.0078369345732583993,0.004527972448153365,0,0.0053647508814765182,0.006211477802783103,-0.0057128794390595809,0,4.0011299999999999,4.6326400000000003,-4.3107800000000003,1],"name":"camera1_46"},"directionalLight1_47":{"children":[],"light":"directionalLightShape1_44","matrix":[-0.0095469169781043639,0.0021814333356197169,-0.0020242837783842694,0,0.00014672150811696955,0.0071388524201416326,0.0070010898381961811,0,0.0029723473909081585,0.0066541817472687793,-0.0068474094562890331,0,1.48654,1.8367199999999999,-2.9217899999999997,1],"name":"directionalLight1_47"}},"programs":{"program_0":{"attributes":["a_normal","a_position","a_texcoord0"],"fragmentShader":"program_0FS","name":"program_0","vertexShader":"program_0VS"}},"samplers":{"sampler_file2":{"magFilter":9729,"minFilter":9987,"name":"sampler_file2","wrapS":10497,"wrapT":10497}},"scene":"untitled","scenes":{"untitled":{"nodes":["RootNode_10"]}},"shaders":{"program_0FS":{"type":35632,"uri":"program_0FS.glsl"},"program_0VS":{"type":35633,"uri":"program_0VS.glsl"}},"skins":{},"techniques":{"blinn3_technique_0":{"attributes":{"a_normal":"normal","a_position":"position","a_texcoord0":"texcoord0"},"extras":{"doubleSided":false,"lightingModel":"Phong","texcoordBindings":{"diffuse":"TEXCOORD_0"}},"parameters":{"ambient":{"type":35666},"diffuse":{"type":35678},"emission":{"type":35666},"light0Color":{"type":35665,"values":[1,1,1]},"light0Transform":{"node":"directionalLight1_47","semantic":"MODELVIEW","type":35676},"modelViewMatrix":{"semantic":"MODELVIEW","type":35676},"normal":{"semantic":"NORMAL","type":35665},"normalMatrix":{"semantic":"MODELVIEWINVERSETRANSPOSE","type":35675},"position":{"semantic":"POSITION","type":35665},"projectionMatrix":{"semantic":"PROJECTION","type":35676},"reflective":{"type":35666},"reflectivity":{"type":5126},"shininess":{"type":5126},"specular":{"type":35666},"texcoord0":{"semantic":"TEXCOORD_0","type":35664},"transparency":{"type":5126},"transparent":{"type":35666}},"program":"program_0","states":{"enable":[2884,2929]},"uniforms":{"u_ambient":"ambient","u_diffuse":"diffuse","u_emission":"emission","u_light0Color":"light0Color","u_light0Transform":"light0Transform","u_modelViewMatrix":"modelViewMatrix","u_normalMatrix":"normalMatrix","u_projectionMatrix":"projectionMatrix","u_reflective":"reflective","u_reflectivity":"reflectivity","u_shininess":"shininess","u_specular":"specular","u_transparency":"transparency","u_transparent":"transparent"}}},"textures":{"texture_file2":{"format":6408,"internalFormat":6408,"name":"texture_file2","sampler":"sampler_file2","source":"file2","target":3553,"type":5121}}}
